HIERARCHY
ROOT Hips
{
	OFFSET -0.001795 -0.223333 0.028219
	CHANNELS 6 Xposition Yposition Zposition Zrotation Yrotation Xrotation 
	JOINT LeftUpLeg
	{
		OFFSET 0.069520 -0.091406 -0.006815
		CHANNELS 3 Zrotation Yrotation Xrotation
		JOINT LeftLeg
		{
			OFFSET 0.034277 -0.375199 -0.004496
			CHANNELS 3 Zrotation Yrotation Xrotation
			JOINT LeftFoot
			{
				OFFSET -0.013596 -0.397961 -0.043693
				CHANNELS 3 Zrotation Yrotation Xrotation
				JOINT LeftToe
				{
					OFFSET 0.026358 -0.055791 0.119288
					CHANNELS 3 Zrotation Yrotation Xrotation
					End Site
					{
						OFFSET 0.000000 0.000000 0.000000
					}
				}
			}
		}
	}
	JOINT RightUpLeg
	{
		OFFSET -0.067670 -0.090522 -0.004320
		CHANNELS 3 Zrotation Yrotation Xrotation
		JOINT RightLeg
		{
			OFFSET -0.038290 -0.382569 -0.008850
			CHANNELS 3 Zrotation Yrotation Xrotation
			JOINT RightFoot
			{
				OFFSET 0.015774 -0.398415 -0.042312
				CHANNELS 3 Zrotation Yrotation Xrotation
				JOINT RightToe
				{
					OFFSET -0.025372 -0.048144 0.123348
					CHANNELS 3 Zrotation Yrotation Xrotation
					End Site
					{
						OFFSET 0.000000 0.000000 0.000000
					}
				}
			}
		}
	}
	JOINT Spine
	{
		OFFSET -0.002533 0.108963 -0.026696
		CHANNELS 3 Zrotation Yrotation Xrotation
		JOINT Spine1
		{
			OFFSET 0.005487 0.135180 0.001092
			CHANNELS 3 Zrotation Yrotation Xrotation
			JOINT Spine2
			{
				OFFSET 0.001457 0.052922 0.025425
				CHANNELS 3 Zrotation Yrotation Xrotation
				JOINT Neck
				{
					OFFSET -0.002778 0.213870 -0.042857
					CHANNELS 3 Zrotation Yrotation Xrotation
					JOINT Head
					{
						OFFSET 0.005152 0.064970 0.051349
						CHANNELS 3 Zrotation Yrotation Xrotation
						End Site
						{
							OFFSET 0.000000 0.000000 0.000000
						}
					}
				}
				JOINT LeftShoulder
				{
					OFFSET 0.078845 0.121749 -0.034090
					CHANNELS 3 Zrotation Yrotation Xrotation
					JOINT LeftArm
					{
						OFFSET 0.090977 0.030469 -0.008868
						CHANNELS 3 Zrotation Yrotation Xrotation
						JOINT LeftForeArm
						{
							OFFSET 0.259612 -0.012772 -0.027456
							CHANNELS 3 Zrotation Yrotation Xrotation
							JOINT LeftHand
							{
								OFFSET 0.249234 0.008986 -0.001171
								CHANNELS 3 Zrotation Yrotation Xrotation
								End Site
								{
									OFFSET 0.000000 0.000000 0.000000
								}
							}
						}
					}
				}
				JOINT RightShoulder
				{
					OFFSET -0.081759 0.118833 -0.038615
					CHANNELS 3 Zrotation Yrotation Xrotation
					JOINT RightArm
					{
						OFFSET -0.096012 0.032551 -0.009143
						CHANNELS 3 Zrotation Yrotation Xrotation
						JOINT RightForeArm
						{
							OFFSET -0.253742 -0.013329 -0.021401
							CHANNELS 3 Zrotation Yrotation Xrotation
							JOINT RightHand
							{
								OFFSET -0.255298 0.007772 -0.005559
								CHANNELS 3 Zrotation Yrotation Xrotation
								End Site
								{
									OFFSET 0.000000 0.000000 0.000000
								}
							}
						}
					}
				}
			}
		}
	}
}
MOTION
Frames: 7
Frame Time: 0.050000
0.000000 0.946077 0.000000 -1.529761 -0.574253 6.868100 6.252563 -0.362564 -5.121641 0.850262 0.168318 -6.237899 2.723785 9.041737 12.364921 0.000000 0.000000 0.000000 -4.222300 0.599597 -6.653252 -0.797125 -0.043812 -2.681710 -2.155732 -9.043540 11.648259 0.000000 0.000000 0.000000 3.441581 0.213988 -4.540128 -1.232232 0.611006 -2.527165 -1.518483 2.280453 3.817908 4.101257 -1.752865 -10.751912 0.000000 0.000000 0.000000 -18.941271 -3.550934 -0.532685 -52.923535 -8.124495 -2.515114 -11.538705 -16.085925 2.142327 0.000000 0.000000 0.000000 18.160291 0.563432 -0.880574 57.234325 8.447667 -1.427675 9.666280 17.313253 1.906621 0.000000 0.000000 0.000000 
0.000173 0.945305 0.001233 -1.666746 -1.526681 7.444325 5.766252 -0.354490 -4.791484 2.252157 0.125418 -6.820426 3.059131 9.470434 12.371860 0.000000 0.000000 0.000000 -4.112332 0.648025 -7.164644 -0.927704 -0.020225 -2.359718 -1.380944 -7.759146 11.866812 0.000000 0.000000 0.000000 3.786594 0.266585 -5.225100 -1.916493 0.907955 -2.819603 -1.126638 2.620314 3.587448 3.924874 -1.697415 -10.398269 0.000000 0.000000 0.000000 -20.021948 -2.938277 -0.905532 -52.708387 -8.459311 -2.331931 -11.540215 -15.924122 2.126698 0.000000 0.000000 0.000000 17.497398 0.259908 -1.072237 58.409555 8.149958 -1.528598 10.540843 17.792534 2.081645 0.000000 0.000000 0.000000 
0.000293 0.945339 0.002083 -1.377271 -0.840960 7.337112 5.553334 -0.361171 -4.727451 2.301355 0.102462 -6.431153 2.712265 8.948668 12.167577 0.000000 0.000000 0.000000 -4.208901 0.635026 -7.099325 -1.382797 0.029076 -2.140441 -1.916114 -8.724829 12.037741 0.000000 0.000000 0.000000 3.252985 0.237643 -4.944842 -1.118427 0.576218 -3.971369 -1.815943 2.176662 3.726989 4.109891 -2.007811 -8.966573 0.000000 0.000000 0.000000 -19.661638 -3.451864 -0.609120 -52.675870 -8.185375 -2.466534 -11.852502 -15.110994 2.053731 0.000000 0.000000 0.000000 18.910544 1.480876 -0.479940 56.841121 7.589206 -1.832848 10.668825 18.363736 2.178490 0.000000 0.000000 0.000000 
0.000381 0.945071 0.002842 -1.626583 -1.267043 7.825747 5.681668 -0.378469 -5.157105 2.427152 0.098272 -6.478427 2.994326 9.420637 12.496638 0.000000 0.000000 0.000000 -3.961693 0.709913 -8.026281 -1.332799 0.043070 -1.757498 -1.940302 -8.887390 12.263111 0.000000 0.000000 0.000000 3.383507 0.274647 -5.478685 -1.643588 0.793664 -3.557503 -0.891528 1.372806 2.709481 3.663789 -1.954799 -7.430654 0.000000 0.000000 0.000000 -19.765022 -2.845580 -0.650226 -53.083747 -8.483172 -2.311845 -11.749319 -14.628879 1.997635 0.000000 0.000000 0.000000 17.882528 1.846317 -0.558500 57.073606 7.119177 -1.899951 12.029366 18.916232 2.405732 0.000000 0.000000 0.000000 
0.000389 0.945271 0.003452 -1.425200 -0.789959 7.751504 5.439482 -0.384670 -5.100387 2.574645 0.095571 -6.542816 2.501522 8.695201 12.536111 0.000000 0.000000 0.000000 -4.130749 0.685887 -7.799068 -1.462240 0.038691 -2.078832 -1.975851 -8.966216 12.579267 0.000000 0.000000 0.000000 3.061105 0.279124 -5.630937 -1.199922 0.604032 -3.364915 -1.138622 0.755615 2.418404 3.129501 -1.594418 -7.408678 0.000000 0.000000 0.000000 -20.006109 -3.091290 -0.472733 -52.774804 -9.157420 -1.988564 -12.598276 -14.289309 2.058100 0.000000 0.000000 0.000000 17.507833 1.979540 -0.536374 57.062131 7.063832 -1.888933 13.326682 19.679365 2.708040 0.000000 0.000000 0.000000 
0.000423 0.945570 0.003841 -1.356948 -1.032629 7.970471 5.277813 -0.393568 -5.248066 2.694354 0.080649 -6.397410 2.721689 9.025720 12.561312 0.000000 0.000000 0.000000 -4.176155 0.711981 -8.153176 -1.530310 0.045828 -2.033387 -1.887226 -8.852563 12.648419 0.000000 0.000000 0.000000 2.861444 0.297439 -5.952853 -1.174434 0.590272 -3.297998 -0.864428 0.526962 2.241780 3.054936 -1.628900 -6.821340 0.000000 0.000000 0.000000 -20.305748 -2.915094 -0.483946 -52.655996 -9.432438 -1.869917 -12.642886 -14.215803 2.062263 0.000000 0.000000 0.000000 17.297273 2.362651 -0.426007 57.072846 7.500356 -1.649654 13.938312 19.572776 2.766331 0.000000 0.000000 0.000000 
0.000420 0.945684 0.003940 -1.181385 -0.856689 7.996111 5.124608 -0.399458 -5.263809 2.545404 0.092624 -6.462637 2.656131 9.025011 12.953034 0.000000 0.000000 0.000000 -4.320811 0.703625 -8.103062 -1.565907 0.045358 -2.108503 -1.817961 -8.685461 12.597000 0.000000 0.000000 0.000000 2.653405 0.296919 -6.019315 -1.140111 0.573946 -3.078799 -0.936803 0.012012 2.100308 2.860978 -1.492077 -6.982886 0.000000 0.000000 0.000000 -20.324610 -2.875365 -0.405866 -52.529923 -9.651595 -1.776693 -13.256898 -14.787876 2.235810 0.000000 0.000000 0.000000 17.157719 2.885403 -0.238747 57.038921 7.625589 -1.565980 14.700170 20.030033 2.944521 0.000000 0.000000 0.000000 
